<svg id="Layer_1" data-name="Layer 1" xmlns="http://www.w3.org/2000/svg" viewBox="0 0 131.84 140.63"><defs><style>.cls-1{fill:#fff;}</style></defs><title>icon</title><path class="cls-1" d="M43.95,52.73H61.52V70.31H43.95V52.73Zm26.37,0H87.89V70.31H70.31V52.73Zm26.37,0h17.58V70.31H96.68V52.73Zm-79.1,52.73H35.16V123H17.58V105.47Zm26.37,0H61.52V123H43.95V105.47Zm26.37,0H87.89V123H70.31V105.47ZM43.95,79.1H61.52V96.68H43.95V79.1Zm26.37,0H87.89V96.68H70.31V79.1Zm26.37,0h17.58V96.68H96.68V79.1Zm-79.1,0H35.16V96.68H17.58V79.1ZM114.26,0V8.79H96.68V0H35.16V8.79H17.58V0H0V140.63H131.84V0H114.26ZM123,131.84H8.79V35.16H123v96.68Z"/></svg>