<svg id="Layer_1" data-name="Layer 1" xmlns="http://www.w3.org/2000/svg" viewBox="0 0 122.1 140.63"><defs><style>.cls-1{fill:#fff;}</style></defs><title>fire</title><path class="cls-1" d="M34.38,140.61C25,121.1,30,109.93,37.2,99.4a65.78,65.78,0,0,0,9.92-22.94s6.21,8.06,3.72,20.67c11-12.19,13-31.62,11.36-39.07C87,75.37,97.54,112.84,83.29,140.62,159.15,97.7,102.16,33.48,92.24,26.24c3.3,7.23,3.94,19.48-2.75,25.43C78.17,8.79,50.22,0,50.22,0c3.3,22.11-12,46.3-26.74,64.37C23,55.56,22.41,49.46,17.78,41c-1,16-13.28,29.08-16.6,45.13-4.49,21.74,3.37,37.65,33.2,54.47v0Z"/></svg>