<svg id="Layer_1" data-name="Layer 1" xmlns="http://www.w3.org/2000/svg" viewBox="0 0 150 140.63"><defs><style>.cls-1{fill:#fff;}</style></defs><title>icon</title><path class="cls-1" d="M150,75V18.75H121.88V9.38A9.4,9.4,0,0,0,112.5,0H9.38A9.4,9.4,0,0,0,0,9.38V37.5a9.4,9.4,0,0,0,9.38,9.38H112.5a9.4,9.4,0,0,0,9.38-9.37V28.13h18.75v37.5H56.25V84.38H51.56a4.69,4.69,0,0,0-4.69,4.69v46.88a4.69,4.69,0,0,0,4.69,4.69H70.31A4.69,4.69,0,0,0,75,135.94V89.06a4.69,4.69,0,0,0-4.69-4.69H65.63V75H150ZM112.5,18.75H9.38V9.38H112.5v9.38Z"/></svg>