<?xml version="1.0" encoding="utf-8"?>
<!-- Generator: Adobe Illustrator 19.2.1, SVG Export Plug-In . SVG Version: 6.00 Build 0)  -->
<svg version="1.1" id="Layer_1" xmlns="http://www.w3.org/2000/svg" xmlns:xlink="http://www.w3.org/1999/xlink" x="0px" y="0px"
	 viewBox="0 0 16 16" style="enable-background:new 0 0 16 16;" xml:space="preserve">
<style type="text/css">
	.st0{fill:#939393;}
</style>
<path class="st0" d="M3.5,7C5.4,7,7,8.6,7,10.5S5.4,14,3.5,14S0,12.4,0,10.5L0,10c0-3.9,3.1-7,7-7v2C5.7,5,4.4,5.5,3.5,6.5
	C3.3,6.6,3.1,6.8,3,7C3.1,7,3.3,7,3.5,7L3.5,7z M12.5,7c1.9,0,3.5,1.6,3.5,3.5S14.4,14,12.5,14S9,12.4,9,10.5L9,10c0-3.9,3.1-7,7-7
	v2c-1.3,0-2.6,0.5-3.5,1.5C12.3,6.6,12.1,6.8,12,7C12.1,7,12.3,7,12.5,7L12.5,7z"/>
</svg>
